# xmcd
#
# Track frame offsets:
#	150
#	14514
#	32524
#	52786
#	72961
#	86750
#	106026
#	124222
#	139338
#	152365
#
# Disc length: 2322 seconds
#
# Revision: 1
# Processed by: cddbd v1.5.2PL0 Copyright (c) Steve Scherf et al.
# Submitted via: audiograbber 1.83.01
#
DISCID=7809100a
DTITLE=The Snakes - Songs From The Satelittes
DYEAR=2006
DGENRE=Country Rock
TTITLE0=Turn back the clock
TTITLE1=Ll'lb
TTITLE2=Homecoming day
TTITLE3=Eight ball
TTITLE4=Old country
TTITLE5=Drag you down
TTITLE6=Satellite town
TTITLE7=I'll be around
TTITLE8=Don't fade away
TTITLE9=Happiness
EXTD=
EXTT0=
EXTT1=
EXTT2=
EXTT3=
EXTT4=
EXTT5=
EXTT6=
EXTT7=
EXTT8=
EXTT9=
PLAYORDER=
